<svg width="733" height="72" viewBox="0 0 733 72" fill="none" xmlns="http://www.w3.org/2000/svg">
<path d="M36.6 71.2C31.3333 71.2 26.4667 70.3333 22 68.6C17.5333 66.8 13.6667 64.3 10.4 61.1C7.13333 57.9 4.56667 54.1333 2.7 49.8C0.9 45.4667 0 40.7333 0 35.6C0 30.4667 0.9 25.7333 2.7 21.4C4.56667 17.0667 7.13333 13.3 10.4 10.1C13.7333 6.9 17.6333 4.43333 22.1 2.7C26.5667 0.9 31.4333 0 36.7 0C41.7667 0 46.5333 0.866667 51 2.6C55.4667 4.26667 59.2333 6.8 62.3 10.2L57.6 14.9C54.7333 11.9667 51.5667 9.86667 48.1 8.6C44.6333 7.26667 40.9 6.6 36.9 6.6C32.7 6.6 28.8 7.33333 25.2 8.8C21.6 10.2 18.4667 12.2333 15.8 14.9C13.1333 17.5 11.0333 20.5667 9.5 24.1C8.03333 27.5667 7.3 31.4 7.3 35.6C7.3 39.8 8.03333 43.6667 9.5 47.2C11.0333 50.6667 13.1333 53.7333 15.8 56.4C18.4667 59 21.6 61.0333 25.2 62.5C28.8 63.9 32.7 64.6 36.9 64.6C40.9 64.6 44.6333 63.9333 48.1 62.6C51.5667 61.2667 54.7333 59.1333 57.6 56.2L62.3 60.9C59.2333 64.3 55.4667 66.8667 51 68.6C46.5333 70.3333 41.7333 71.2 36.6 71.2Z" fill="black"/>
<path d="M98.075 70.6V0.599998H105.475V64.2H144.675V70.6H98.075Z" fill="black"/>
<path d="M183.562 31.9H220.562V38.2H183.562V31.9ZM184.362 64.2H226.462V70.6H176.962V0.599998H224.962V7H184.362V64.2Z" fill="black"/>
<path d="M282.78 70.6L251.78 0.599998H259.78L288.78 66.5H284.38L313.58 0.599998H321.08L290.08 70.6H282.78Z" fill="black"/>
<path d="M357.839 31.9H394.839V38.2H357.839V31.9ZM358.639 64.2H400.739V70.6H351.239V0.599998H399.239V7H358.639V64.2Z" fill="black"/>
<path d="M438.134 70.6V0.599998H464.334C470.267 0.599998 475.367 1.56667 479.634 3.5C483.9 5.36667 487.167 8.1 489.434 11.7C491.767 15.2333 492.934 19.5333 492.934 24.6C492.934 29.5333 491.767 33.8 489.434 37.4C487.167 40.9333 483.9 43.6667 479.634 45.6C475.367 47.4667 470.267 48.4 464.334 48.4H442.234H445.534V70.6H438.134ZM485.934 70.6L467.934 45.2H475.934L494.034 70.6H485.934ZM438.134 42.1H442.234H464.134C471.134 42.1 476.434 40.5667 480.034 37.5C483.7 34.4333 485.534 30.1333 485.534 24.6C485.534 19 483.7 14.6667 480.034 11.6C476.434 8.53333 471.134 7 464.134 7H442.234H438.134V42.1Z" fill="black"/>
<path d="M530.399 70.6V0.599998H537.799V70.6H530.399Z" fill="black"/>
<path d="M580.575 70.6V0.599998H609.075C616.542 0.599998 623.075 2.1 628.675 5.1C634.342 8.03333 638.742 12.1333 641.875 17.4C645.008 22.6667 646.575 28.7333 646.575 35.6C646.575 42.4667 645.008 48.5333 641.875 53.8C638.742 59.0667 634.342 63.2 628.675 66.2C623.075 69.1333 616.542 70.6 609.075 70.6H580.575ZM580.575 64.2H608.675C614.875 64.2 620.242 63 624.775 60.6C629.375 58.1333 632.942 54.7667 635.475 50.5C638.008 46.1667 639.275 41.2 639.275 35.6C639.275 29.9333 638.008 24.9667 635.475 20.7C632.942 16.4333 629.375 13.1 624.775 10.7C620.242 8.23333 614.875 7 608.675 7H580.575V64.2Z" fill="black"/>
<path d="M689.792 31.9H726.792V38.2H689.792V31.9ZM690.592 64.2H732.692V70.6H683.192V0.599998H731.192V7H690.592V64.2Z" fill="black"/>
</svg>
